<?xml version="1.0" encoding="utf-8"?>
<!-- Generator: Adobe Illustrator 24.0.1, SVG Export Plug-In . SVG Version: 6.00 Build 0)  -->
<svg version="1.1" id="Layer_2" xmlns="http://www.w3.org/2000/svg" xmlns:xlink="http://www.w3.org/1999/xlink" x="0px" y="0px"
	 viewBox="0 0 500 500" style="enable-background:new 0 0 500 500;" xml:space="preserve">
<style type="text/css">
	.st0{fill:#FF26BE;}
	.st1{fill:#2E001F;}
	.st2{fill:#FFD9F2;}
</style>
<g>
	<path class="st0" d="M370.9,432.5H129.1c-36.7,0-66.3-29.6-66.3-66.3V133.8c0-36.7,29.6-66.3,66.3-66.3h241.8
		c36.7,0,66.3,29.6,66.3,66.3v232.4C437.2,402.9,407.5,432.5,370.9,432.5z"/>
	<path class="st1" d="M365,416.9H135c-31.2,0-56.6-25.4-56.6-56.6V139.7c0-31.2,25.4-56.6,56.6-56.6h229.8
		c31.4,0,56.6,25.4,56.6,56.6v220.4C421.6,391.5,396.2,416.9,365,416.9z"/>
	<path class="st2" d="M210.8,238.3l43.7,83.9c0.8,1.2,0.3,2.5-0.9,2.5h-27.1c-1.7,0-2.5-0.5-3.3-2c-10-20.6-20.1-41.2-30.6-63.3
		h-0.3c-9.4,20.9-19.7,42.9-29.6,63.5c-0.8,1.2-1.6,1.7-2.8,1.7h-25.7c-1.6,0-1.7-1.2-0.9-2.2l42.7-81.4l-41.3-82.4
		c-0.9-1.2,0-2.2,0.9-2.2h26.8c1.6,0,2.2,0.3,2.8,1.7c9.8,20.6,19.8,41.8,29.2,62.5h0.3c9-20.6,19-42,28.7-62.4c0.8-1.2,1.2-2,2.8-2
		h25.1c1.2,0,1.7,0.9,0.9,2.2L210.8,238.3z M262.2,263.7c0-36.3,24.2-64.7,62.5-64.7c3.3,0,5,0,8.1,0.3V158c0-0.9,0.8-1.6,1.6-1.6
		H359c1.2,0,1.6,0.5,1.6,1.2v143.2c0,4.2,0,9.5,0.8,15.3c0,0.9-0.3,1.2-1.2,1.7c-13.1,6.2-26.8,9-39.9,9
		C286.3,327.1,262.2,306.2,262.2,263.7z M332.8,223.8c-2.2-0.9-5.3-1.6-9-1.6c-19.7,0-33.4,15.1-33.4,40.2c0,28.7,14,40.2,31.7,40.2
		c3.7,0,7.8-0.5,10.8-1.7V223.8z"/>
</g>
</svg>
