<?xml version="1.0" encoding="utf-8"?>
<!-- Generator: Adobe Illustrator 19.0.0, SVG Export Plug-In . SVG Version: 6.00 Build 0)  -->
<svg version="1.1" id="Layer_1" xmlns="http://www.w3.org/2000/svg" xmlns:xlink="http://www.w3.org/1999/xlink" x="0px" y="0px"
	 viewBox="0 0 500 500" style="enable-background:new 0 0 500 500;" xml:space="preserve">
<style type="text/css">
	.st0{fill:#35FA00;}
	.st1{fill:#072600;}
</style>
<g id="XMLID_25_">
	<rect id="XMLID_27_" x="67.5" y="67.5" class="st0" width="365" height="365"/>
	<rect id="XMLID_31_" x="83.6" y="83.6" class="st1" width="332.9" height="332.9"/>
	<path id="XMLID_34_" class="st0" d="M117,157.5c0-1,0.2-1.5,1.5-1.8c12.6-0.5,28.2-0.8,41.8-0.8c47.3,0,71.1,32.4,71.1,80.6
		c0,71.6-46.9,84.4-75.3,84.4c-14.9,0-25.7-0.3-37.7-0.5c-1,0-1.5-0.5-1.5-2.3V157.5z M142.3,295.9c3.8,0.3,8.8,0.3,14.6,0.3
		c29.3,0,48.5-18.3,48.5-59.8c0-37.9-16.5-57.3-45.2-57.3c-9.4,0-16.1,0.3-18,0.5V295.9z"/>
	<path id="XMLID_35_" class="st0" d="M337.6,320.9c-1.4,0-1.8-0.5-2.3-2c-11.5-56-15.4-77.1-17.5-88.9h-0.2
		c-2.1,12.6-7,34.9-19.9,88.9c-0.4,1.5-1,2-2.3,2h-22.8c-1.8,0-2.3-0.8-2.7-2.3l-26.9-117.8c-0.4-1.3,0-2,1.2-2h22
		c1.2,0,1.6,0.3,1.8,1.5c14,65,16.9,83.4,18.3,92.4h0.4c0.8-4.3,6-30.4,19.5-91.9c0.2-1.5,0.4-2,1.8-2h22c1,0,1.4,0.5,1.6,1.5
		c13.4,64,16.6,84.1,18.1,93.2h0.4c2.5-14.8,6.4-38.9,19.1-92.9c0.2-1.3,0.8-1.8,1.6-1.8h20.3c0.8,0,1.4,0.5,1.2,1.8l-29.8,118.3
		c-0.4,1.5-0.6,2-2.3,2H337.6z"/>
</g>
</svg>
