<?xml version="1.0" encoding="utf-8"?>
<!-- Generator: Adobe Illustrator 24.0.1, SVG Export Plug-In . SVG Version: 6.00 Build 0)  -->
<svg version="1.1" id="Layer_3" xmlns="http://www.w3.org/2000/svg" xmlns:xlink="http://www.w3.org/1999/xlink" x="0px" y="0px"
	 viewBox="0 0 108 81" style="enable-background:new 0 0 108 81;" xml:space="preserve">
<style type="text/css">
	.st0{fill:#4EA4C3;}
	.st1{fill:#FFFFFF;}
	.st2{fill:#F79227;}
</style>
<rect class="st0" width="108" height="81"/>
<g>
	<path class="st1" d="M17.5,42.1v-15h-3.4V29c-0.5-0.8-1.1-1.3-1.9-1.6c-0.8-0.4-1.7-0.5-2.8-0.5c-1.2,0-2.2,0.2-3.1,0.6
		c-0.9,0.4-1.7,1-2.5,1.7c-0.7,0.7-1.2,1.6-1.6,2.5c-0.4,0.9-0.6,1.9-0.6,3c0,2.3,0.8,4.1,2.2,5.6s3.4,2.3,5.6,2.3
		c1.2,0,2.1-0.2,2.9-0.5c0.8-0.4,1.3-0.9,1.8-1.6v1.8C14.2,42.1,17.5,42.1,17.5,42.1z M12.5,37.7c-0.8,0.8-1.8,1.3-2.9,1.3
		c-1.2,0-2.2-0.4-3.1-1.3c-0.9-0.8-1.3-1.9-1.3-3.2c0-1.2,0.4-2.2,1.2-3.1c0.8-0.8,1.9-1.2,3-1.2c1.1,0,2.1,0.4,3,1.3
		c0.8,0.9,1.2,1.9,1.2,3.1C13.7,35.8,13.3,36.8,12.5,37.7z"/>
	<path class="st1" d="M39.3,31.4c0.4,0.7,0.7,2.1,0.7,4.2v6.6h3.4v-8.6c0-2.2-0.5-3.8-1.5-5c-1-1.2-2.4-1.7-4.2-1.7
		c-0.9,0-1.7,0.2-2.4,0.7c-0.8,0.4-1.4,1.1-2,2c-0.6-0.9-1.4-1.6-2.2-2c-0.8-0.4-1.9-0.6-3.1-0.6c-0.8,0-1.6,0.2-2.3,0.5
		s-1.2,0.8-1.7,1.5v-1.7h-3.4v15h3.4v-6.5c0-2,0.3-3.4,0.8-4.2c0.5-0.8,1.3-1.2,2.5-1.2c1.2,0,1.9,0.4,2.4,1.1
		c0.4,0.8,0.7,2.1,0.7,4.1v6.6h3.5v-6.4c0-2,0.3-3.4,0.8-4.2c0.5-0.8,1.3-1.2,2.5-1.2C38.1,30.2,38.9,30.6,39.3,31.4z"/>
	<path class="st1" d="M57.9,40.3v1.8h3.4v-15h-3.4V29c-0.5-0.8-1.1-1.3-1.9-1.6c-0.8-0.4-1.7-0.5-2.8-0.5c-1.2,0-2.2,0.2-3.1,0.6
		c-0.9,0.4-1.7,1-2.5,1.7c-0.7,0.7-1.2,1.6-1.6,2.5c-0.4,0.9-0.6,1.9-0.6,3c0,2.3,0.8,4.1,2.2,5.6s3.3,2.3,5.5,2.3
		c1.2,0,2.1-0.2,2.9-0.5C57,41.6,57.5,41,57.9,40.3z M53.4,39c-1.2,0-2.2-0.4-3.1-1.3c-0.8-0.8-1.2-1.9-1.2-3.1
		c0-1.2,0.4-2.2,1.2-3.1c0.8-0.8,1.9-1.2,3-1.2c1.1,0,2.1,0.4,3,1.3c0.8,0.9,1.2,1.9,1.2,3.1c0,1.2-0.4,2.1-1.2,3
		C55.5,38.5,54.5,39,53.4,39z"/>
	<polygon class="st1" points="73.7,30.9 73.7,27.1 63.9,27.1 63.9,30.4 70,30.4 63.3,38.9 63.3,42.1 74.2,42.1 74.2,38.8 67.5,38.8 
			"/>
	<path class="st1" d="M88.5,28.9c-0.8-0.7-1.6-1.2-2.5-1.6c-0.9-0.4-1.9-0.5-3-0.5c-1,0-2,0.2-2.9,0.6c-0.9,0.4-1.8,1-2.5,1.7
		s-1.3,1.6-1.7,2.5c-0.4,0.9-0.6,1.9-0.6,3c0,1.1,0.2,2,0.6,3c0.4,0.9,0.9,1.8,1.6,2.6c0.8,0.8,1.6,1.4,2.5,1.8
		c0.9,0.4,1.9,0.6,3.1,0.6c1.1,0,2.2-0.2,3.1-0.6c1-0.4,1.8-1,2.5-1.7c0.8-0.8,1.3-1.6,1.7-2.6c0.4-1,0.6-2,0.6-3.1c0-1-0.2-2-0.6-3
		C89.8,30.5,89.2,29.6,88.5,28.9z M86.1,37.8c-0.8,0.8-1.8,1.2-3.1,1.2c-1.3,0-2.3-0.4-3.1-1.2c-0.8-0.8-1.2-1.9-1.2-3.3
		c0-1.3,0.4-2.3,1.2-3.2c0.8-0.8,1.8-1.2,3.1-1.2c1.2,0,2.2,0.4,3,1.2c0.8,0.8,1.2,1.9,1.2,3.1C87.3,35.9,86.9,37,86.1,37.8z"/>
	<path class="st1" d="M106,31.2c-0.1-0.7-0.4-1.3-0.8-1.9c-0.5-0.8-1.2-1.4-2-1.8c-0.8-0.4-1.7-0.6-2.8-0.6c-0.8,0-1.6,0.2-2.3,0.5
		s-1.2,0.8-1.7,1.5v-1.7h-3.4v15h3.4v-6.5c0-2,0.3-3.4,0.8-4.2c0.5-0.8,1.3-1.2,2.5-1.2c1.2,0,1.9,0.4,2.4,1.1
		c0.4,0.8,0.7,2.1,0.7,4.1v6.6h3.5v-7.9C106.3,32.9,106.2,31.8,106,31.2z"/>
	<path class="st2" d="M20.8,48.2l-0.4,0.7c0.3,0.2,0.7,0.4,1,0.6l1,0.6l0.4-0.7l-1-0.6C21.4,48.6,21.1,48.4,20.8,48.2z"/>
	<polygon class="st2" points="24.5,51.2 26.7,52 26.9,51.3 24.8,50.4 	"/>
	<polygon class="st2" points="28.9,52.7 31.2,53.3 31.4,52.5 29.1,52 	"/>
	<polygon class="st2" points="33.5,53.7 35.8,54 35.9,53.2 33.6,52.9 	"/>
	<polygon class="st2" points="38.1,54.2 40.5,54.3 40.5,53.5 38.2,53.4 	"/>
	<polygon class="st2" points="42.8,53.5 42.8,54.2 45.2,54.1 45.1,53.4 	"/>
	<polygon class="st2" points="47.4,53.1 47.5,53.9 49.8,53.6 49.7,52.8 	"/>
	<polygon class="st2" points="52,52.4 52.1,53.1 54.4,52.6 54.2,51.8 	"/>
	<polygon class="st2" points="56.3,51.1 56.6,51.8 58.8,50.9 58.5,50.2 	"/>
	<path class="st2" d="M61.4,48.5c-0.3,0.2-0.6,0.4-1,0.6l0.4,0.7c0.4-0.2,0.7-0.4,1-0.6c0.3-0.2,0.6-0.5,0.9-0.7l-0.4-0.6L61.4,48.5
		z"/>
	<path class="st2" d="M15.4,43.3l0.5,3.8l1.4-1.1c0.4,0.4,0.8,0.9,1.2,1.3l0.4-0.4c-0.4-0.4-0.9-0.7-1.3-1.1l1.4-1L15.4,43.3z"/>
	<polygon class="st2" points="64.8,45.9 64.2,46.5 64.5,46.8 65.1,46.1 66.6,47.2 66.9,43.3 63.4,45 	"/>
</g>
</svg>
