<svg xmlns="http://www.w3.org/2000/svg" viewBox="0 0 2400 200"><defs><style>.cls-1{fill:#f05023;}.cls-2{font-size:218.73px;font-family:Didot-Italic, Didot;font-style:italic;letter-spacing:0.07em;}.cls-2,.cls-4{fill:#fff;}.cls-3{fill:#002b5c;font-family:HelveticaNeue-CondensedBold, Helvetica Neue;font-weight:700;font-style:normal;letter-spacing:0.07em;}</style></defs><title>Artboard 3</title><g id="v3m"><rect class="cls-1" width="2400" height="200"/><text class="cls-2" transform="translate(42.28 179.25)">VIS<tspan class="cls-3" x="414.71" y="0">COMM</tspan></text><path class="cls-4" d="M1248.87,48.58v70c0,17.82-8.45,26.27-26.27,26.27h-33.78l-3.76-13.51c-4.69,6.38-11.07,14.26-27.77,14.26-19,0-27.4-8.45-27.4-26.27V86.67c0-17.83,8.44-26.27,27.4-26.27,16.7,0,23.08,7.88,27.77,14.26l3.76-13.51h22.52v69.44h10.88c6.19,0,7.51-2.26,7.51-12.39V47.45c0-5.07-2.07-7.13-7.13-7.13H1121.82c-5.07,0-7.13,2.06-7.13,7.13v111.1c0,5.07,2.06,7.13,7.13,7.13h95.9v18h-95.9c-17.83,0-26.27-8.45-26.27-26.28V48.58c0-17.83,8.44-26.28,26.27-26.28H1222.6C1240.42,22.3,1248.87,30.75,1248.87,48.58Zm-86.33,33.59c-5.25,0-6.38,1.12-6.38,4.5v32.66c0,3.37,1.13,4.5,6.38,4.5,10.32,0,16.89-3.38,22.52-7.32v-27C1179.43,85.55,1172.86,82.17,1162.54,82.17Z"/><path class="cls-4" d="M1716,20.6c7.79,2.24,16,2.25,23.8,4.51,8.8,2.54,8.87,2.31,8.87,11.41,0,6.51-.11,13,0,19.53.07,3.43-1.21,4.88-4.74,4.84-15.56-.19-12.63,1.54-12.87-12.38-.15-8.61,0-8.71-8.47-10.39a67.5,67.5,0,0,0-28,0c-19,4.17-30.89,17.38-34,38.74-2.44,16.9-.74,33.23,10,47.39,9.29,12.2,22.13,16.93,37,16.53,5.38-.14,10.75-1.09,16.12-1.75,2.91-.36,4.39-1.91,4.34-5.07-.1-7.23-.08-14.46.1-21.69.07-3-1-4.38-4.07-4a7.79,7.79,0,0,1-1.08,0c-11.12-.21-11.2-.39-10.13-11.48.23-2.37,1.11-3.11,3.32-3.1q20.88.06,41.76,0c2.42,0,3.21,1.11,3,3.32,0,.72,0,1.44,0,2.17.07,8.9.07,9.09-8.65,9-4,0-5.38,1.3-5.32,5.3.15,11-.06,22.05,0,33.08,0,2.36-.22,4.31-3,5-23.68,5.71-47.46,8.43-70.71-1.21-21.26-8.83-32.12-25.84-35.37-48.22-2.27-15.6-.59-30.65,6.31-44.86,10.26-21.14,28-31.82,50.66-35.17,1.95-.28,4,0,5.7-1.37Z"/><path class="cls-4" d="M1449.19,23.11c23.5,0,47,.09,70.5-.09,4,0,5.36.89,5.25,5.06-.2,7.94.08,15.9.41,23.84.16,3.85-.89,5.41-5.12,5.4-13,0-13.2.15-13.19-12.94,0-5.24-1.8-7-7-6.65-6.67.4-13.37.19-20.06.08-3-.05-4.09,1.07-4.12,4.13q-.37,46.35-1,92.69c-.05,3.76,1.2,5.4,4.93,5.05.36,0,.72,0,1.08,0,10.39.18,9-1.45,9.3,9.83.09,3.54-1.11,4.8-4.63,4.77q-20.07-.18-40.13,0c-3.45,0-5.12-1.1-4.6-4.71a15.56,15.56,0,0,0,0-2.16c0-7.59,0-7.85,7.51-7.63,4.86.14,6.56-1.38,6.51-6.44-.2-20.61,0-41.22.1-61.82.06-9.4.21-18.79.54-28.18.15-4.17-1.32-5.7-5.63-5.61-11.74.25-23.5.31-35.24,0-5-.14-6.55,1.44-6.53,6.41.1,22.05-.08,44.1-.29,66.15-.25,26.72-13.18,41.85-39.61,45.36-12.16,1.61-24.5,1.54-36.58-1.75-17.14-4.67-27.18-16.72-27.43-34.44-.36-24.93-.26-49.88,0-74.81.07-5.6-1.61-7.42-7-6.93-2.25.2-6,1.54-6.72-1.37-.91-3.92-.36-8.24,0-12.35.12-1.26,2.17-.86,3.39-.86,13.19,0,26.39,0,39.58-.07,2.74,0,4.1.77,3.86,3.66-.1,1.26,0,2.53,0,3.79,0,7.2,0,7.43-7.32,7.23-4.38-.12-6,1.18-5.93,5.79.21,22.41.1,44.83.07,67.25a39.71,39.71,0,0,0,1.94,12.24c2.51,7.9,8,12.8,15.81,15a56,56,0,0,0,26.8.37c10.83-2.32,17.33-10.06,19-21,1.24-8.27,1-16.57,1-24.88,0-16.27-.08-32.54.17-48.81.06-4.39-1.08-6-5.71-5.93-9.93.19-9.76,0-9.73-10.23,0-3.7,1.33-4.47,4.73-4.45C1401.84,23.17,1425.52,23.11,1449.19,23.11Z"/><path class="cls-4" d="M1597.49,92.7c9.09,3.66,13.37,10.7,17.43,18a141.83,141.83,0,0,0,17.47,25.41c21.47,24.3,48.69,34.45,80.75,32.49,23.94-1.47,45.57-10.2,66.53-21.07,1.59-.82,3.94-3.61,5.15,0,1,2.92,5.43,6.37.41,9.34-18.81,11.12-37.63,22.31-59.59,26.26-38.7,7-72.51-3.32-101.78-29.21-13.83-12.24-24.4-27-33.21-43.17-6.67-12.21-9.79-13.78-23.44-12.51-2.63.24-3.35,1.29-3.37,3.69-.08,11.56-.25,23.13-.41,34.69,0,2.07,1,3,3,3,1.44.06,2.89.09,4.34.1,9.86,0,7.87-.28,8.34,8.6.25,4.56-1.3,5.93-5.78,5.84-12.65-.25-25.31-.2-38,0-4.06.05-6.25-1-5.53-5.47a13,13,0,0,0,0-3.79c-.62-4.17,1.32-5.3,5.23-5.22,9.64.22,7.7-.47,7.8-8,.37-29.09.56-58.18,1.11-87.27.1-5.11-1.16-7.35-6.55-6.82-2.36.22-6.11,1.35-7-1-1.43-3.8-.77-8.2-.24-12.32.17-1.28,1.65-1.19,2.71-1.16,22,.52,44.12-1.51,66.07,1.12,16.71,2,28,14.45,28.78,31.53s-7,30.89-24.81,35.15C1601.36,91.33,1599.9,91.91,1597.49,92.7ZM1564,59.85h-.13V78.26c0,2.06,0,4.22,2.86,4.25,8.27.07,16.62.91,24.68-1.85,9.83-3.38,15.53-11.84,14.85-22-.76-11.34-6.46-17.7-17.58-20.1-6.64-1.43-13.31-.4-20-.81-3.49-.21-4.87,1.27-4.78,4.76C1564.1,48.29,1564,54.07,1564,59.85Z"/><path class="cls-4" d="M1829.09,136c11-31.27,21.94-62.35,33-93.38,1.28-3.59.7-5.16-3.28-4.84-1.08.08-2.17,0-3.25,0-7,0-7,0-7-7.07,0-8.87-.5-7.5,7.51-7.55,11.56-.06,23.12.17,34.68-.11,4.14-.1,5.66,1.23,5,5.22a15.56,15.56,0,0,0,0,2.16c0,8.17.62,7.62-7.2,7.25-4.41-.21-5.46,2.41-6.67,5.56-13.59,35.13-27.3,70.22-40.74,105.41-1.62,4.24-3.76,5.65-8.22,5.62-16.93-.14-17,0-23.1-15.59-12.4-31.54-24.85-63-37.08-94.66-1.72-4.42-3.74-7.19-8.92-6.26-3.91.7-5.34-.84-5.25-5,.2-9.59,0-9.59,9.31-9.59,11.57,0,23.13.12,34.69-.08,3.59-.06,5,1.21,4.68,4.68a20.89,20.89,0,0,0,0,4.33c.56,4.53-1.38,5.94-5.85,5.8-7.54-.25-7.57,0-5.08,6.92,9.49,26.26,18.94,52.55,28.58,78.76C1826.44,127.66,1826.46,132.32,1829.09,136Z"/></g></svg>