<svg id="Layer_1" data-name="Layer 1" xmlns="http://www.w3.org/2000/svg" viewBox="0 0 108 81"><defs><style>.cls-1{fill:#bcbec0;}.cls-2{fill:#18301b;}.cls-3{fill:#cc6f28;}.cls-4{fill:#fff;}</style></defs><title>barnes-noble</title><rect class="cls-1" width="108" height="81"/><path class="cls-2" d="M52.5,44a26.4,26.4,0,0,0,3-1.79c2.74-1.95,3.71-3.86,3.71-6.25v-.11A6.68,6.68,0,0,0,56,30.25a4.07,4.07,0,0,0-.5-.13,12.34,12.34,0,0,0-3-.42,3.93,3.93,0,0,0-.49,0,13.45,13.45,0,0,0-4.85.85A6.83,6.83,0,0,0,44.23,36v.12c0,2.59,1.21,5.4,5.11,9.37C50.52,45,51.57,44.46,52.5,44Zm-3.32-4.47A2.84,2.84,0,0,1,52,36.39a2.63,2.63,0,0,1,.49,0,2.6,2.6,0,0,1,2.22,2.78v.09a4.09,4.09,0,0,1-2.22,3.56,10.43,10.43,0,0,1-1.5.79c-1.22-1.52-1.82-2.68-1.82-4Z"/><path class="cls-2" d="M52.5,50.43l-3.44-3.7A28.65,28.65,0,0,0,42,50.88a8.76,8.76,0,0,0-3.13,6.86v.11a8.16,8.16,0,0,0,1.57,4.81,9,9,0,0,0,3.87,3.08,17.82,17.82,0,0,0,8.24.13,15.72,15.72,0,0,0,3-1c.44-.19.88-.4,1.3-.63a.05.05,0,0,1,0,0,20.48,20.48,0,0,0,4.51-4.29L55.5,53.65Zm0,8.06a6.16,6.16,0,0,1-2.51.58c-2.42,0-4.15-1.4-4.15-3.47v-.1a4.51,4.51,0,0,1,2.52-3.84l4.14,4.21,1.66,1.69A10.56,10.56,0,0,1,52.5,58.49Z"/><path class="cls-2" d="M37.62,57.85v-.11A9.65,9.65,0,0,1,41.25,50a29.74,29.74,0,0,1,7-4.14c-3.86-4-5.17-6.93-5.17-9.75V36a7.56,7.56,0,0,1,1-3.64,9.07,9.07,0,0,0-2.69,4.06,7.08,7.08,0,0,0-1.8-2.9A10.19,10.19,0,0,0,35.11,31a17.49,17.49,0,0,0-3.65-.6c-.5,0-1-.05-1.55-.05H11.81V65.69H30a17.14,17.14,0,0,0,9.39-2.3l.21.17-.17-.21A9.23,9.23,0,0,1,37.62,57.85ZM21.34,38.25h6.55c2.79.06,4.23,1.16,4.23,3v.1c0,2.06-1.66,3.07-4.63,3.07H21.34ZM33.6,54.59c0,2.07-1.73,3.22-4.7,3.22H21.34v-6.5H28.8c3.28,0,4.8,1.26,4.8,3.18Zm7.73-12.3a12.8,12.8,0,0,0,1.89,3.82,15,15,0,0,0-3.85,2.46,14.79,14.79,0,0,0-3-1.35A8.47,8.47,0,0,0,41.33,42.29Z"/><path class="cls-2" d="M86.5,30.38V49L72,30.38H62.85V46.27h0a51.74,51.74,0,0,1-3.32,5.6L55.58,48c4.13-1.92,6.91-4.84,6.91-9.17v-.1a8.44,8.44,0,0,0-3.3-6.83,7.23,7.23,0,0,1,1.17,3.9v.11c0,2.87-1.3,5.15-4.86,7.48a31.48,31.48,0,0,1-3,1.7c-.73.37-1.52.74-2.38,1.12l2.38,2.57,3,3.23,6.51,7c.3-.41.56-.83.84-1.25a48.07,48.07,0,0,0,4.47-9.3l.09-.24,1,.34c0,.14-.1.26-.16.39a45.19,45.19,0,0,1-5.45,10.65c0,.07-.08.12-.12.18l.12.14L66.4,63.8l1.75,1.89h4.38V46.32L87.61,65.69h8.57V30.38Z"/><polygon class="cls-2" points="62.86 61.57 62.86 65.69 63.78 65.69 66.67 65.69 65.52 64.44 62.86 61.57"/><polygon class="cls-3" points="54.01 4.6 9.88 23.1 10.76 27.44 31.7 18.66 51.58 10.32 53.49 9.51 54.01 9.3 54.52 9.51 56.41 10.31 76.31 18.66 97.25 27.44 98.13 23.1 54.01 4.6"/><polygon class="cls-3" points="72 26.96 55.98 10.94 54.01 10.11 52.01 10.95 51.09 11.86 50.87 12.09 36.09 26.86 38.22 26.87 51.98 13.11 53.26 11.83 53.26 26.96 54.76 26.96 54.76 11.83 69.89 26.96 72 26.96"/><path class="cls-4" d="M14.25,72.51v-.05a1.62,1.62,0,0,0,.95-.57,1.53,1.53,0,0,0,.32-1,1.47,1.47,0,0,0-.61-1.29,2.94,2.94,0,0,0-1.68-.42H11.52v7.06h1.84a3.14,3.14,0,0,0,1.91-.52,1.8,1.8,0,0,0,.7-1.53,1.54,1.54,0,0,0-.46-1.17A2.28,2.28,0,0,0,14.25,72.51Zm-2.39-3h1.22a3.15,3.15,0,0,1,1.57.32,1.12,1.12,0,0,1,.52,1,1.28,1.28,0,0,1-.5,1.11,2.92,2.92,0,0,1-1.66.36H11.86Zm3.6,5.5a1.38,1.38,0,0,1-.48.54,2.13,2.13,0,0,1-.75.32,4.4,4.4,0,0,1-1,.1H11.86V72.65h1.37a3.36,3.36,0,0,1,1.77.4,1.29,1.29,0,0,1,.62,1.19A1.65,1.65,0,0,1,15.46,75Z"/><path class="cls-4" d="M20.37,69.21l-2.53,7.06h.35l.88-2.52H22l.88,2.52h.36l-2.52-7.06Zm1,2.82.5,1.42H19.18l.5-1.42.43-1.22c.13-.38.26-.79.39-1.24h0c.13.45.26.86.39,1.24S21.2,71.61,21.35,72Z"/><path class="cls-4" d="M29.34,72.35A1.73,1.73,0,0,0,29.85,71a1.94,1.94,0,0,0-.16-.84,1.55,1.55,0,0,0-.45-.56,2.16,2.16,0,0,0-.72-.32,3.82,3.82,0,0,0-.94-.1H25.64v7.06H26V72.93h1.58l2,3.34H30l-2-3.36A2.29,2.29,0,0,0,29.34,72.35Zm-1.89.28H26V69.51h1.47a2.75,2.75,0,0,1,1.51.34A1.3,1.3,0,0,1,29.49,71,1.41,1.41,0,0,1,29,72.24,2.49,2.49,0,0,1,27.45,72.63Z"/><path class="cls-4" d="M36.43,73.8c0,.34,0,.66,0,1s0,.66,0,1h0l-.79-1.37-2.93-5.2h-.35v7.06h.32V71.64c0-.34,0-.66,0-1s0-.63,0-1h0l.78,1.37,2.93,5.2h.35V69.21h-.32Z"/><polygon class="cls-4" points="40.11 72.66 43.28 72.66 43.28 72.36 40.11 72.36 40.11 69.51 43.88 69.51 43.88 69.21 39.77 69.21 39.77 76.27 43.98 76.27 43.98 75.97 40.11 75.97 40.11 72.66"/><path class="cls-4" d="M50.37,73.33a2.38,2.38,0,0,0-.51-.37,5.5,5.5,0,0,0-.6-.28l-1.09-.5c-.14-.05-.28-.12-.44-.19a2.52,2.52,0,0,1-.44-.28,1.44,1.44,0,0,1-.33-.4,1.08,1.08,0,0,1-.14-.56,1.18,1.18,0,0,1,.48-1,2.09,2.09,0,0,1,1.28-.37,2.59,2.59,0,0,1,1,.2,2.49,2.49,0,0,1,.79.55l.21-.24a2.89,2.89,0,0,0-.84-.58,2.67,2.67,0,0,0-1.19-.25,2.84,2.84,0,0,0-.84.12,2.07,2.07,0,0,0-.66.35,1.64,1.64,0,0,0-.44.54,1.39,1.39,0,0,0-.16.68,1.45,1.45,0,0,0,.15.68,1.65,1.65,0,0,0,.38.48,2.45,2.45,0,0,0,.5.34c.17.09.35.17.51.24l1.09.49.55.24a2.11,2.11,0,0,1,.45.31,1.21,1.21,0,0,1,.3.41,1.37,1.37,0,0,1,.11.6,1.29,1.29,0,0,1-.14.62,1.48,1.48,0,0,1-.39.48,2.12,2.12,0,0,1-.62.31,3,3,0,0,1-.82.11,2.88,2.88,0,0,1-1.24-.27,3.08,3.08,0,0,1-1-.72l-.24.24a3.35,3.35,0,0,0,1,.77,3.23,3.23,0,0,0,1.43.3,3.11,3.11,0,0,0,1-.14,2.13,2.13,0,0,0,.73-.39,1.78,1.78,0,0,0,.47-.59,1.75,1.75,0,0,0,0-1.44A1.57,1.57,0,0,0,50.37,73.33Z"/><path class="cls-3" d="M59.25,74a9.52,9.52,0,0,0,.53-1.41h-.32A8.56,8.56,0,0,1,59,73.93,5.45,5.45,0,0,1,58.29,75a9.85,9.85,0,0,1-1.11-1.19,8.17,8.17,0,0,1-.91-1.4l.6-.47a5,5,0,0,0,.53-.49,2.36,2.36,0,0,0,.37-.54,1.33,1.33,0,0,0,.15-.63,1.38,1.38,0,0,0-.29-.89,1,1,0,0,0-.83-.35,1.47,1.47,0,0,0-.56.11,1.38,1.38,0,0,0-.44.32,1.64,1.64,0,0,0-.29.5,2,2,0,0,0-.1.61,3.4,3.4,0,0,0,.13.87,5.21,5.21,0,0,0,.36.91c-.19.14-.37.29-.55.44a3,3,0,0,0-.47.48,2.18,2.18,0,0,0-.33.54,1.68,1.68,0,0,0-.12.63,1.87,1.87,0,0,0,.16.8,1.83,1.83,0,0,0,1.06,1,2.44,2.44,0,0,0,.77.13,2.15,2.15,0,0,0,1-.26,3.49,3.49,0,0,0,.84-.66,5.89,5.89,0,0,0,.78.57,3.21,3.21,0,0,0,.69.35l.13-.3a4.89,4.89,0,0,1-1.39-.87A6.08,6.08,0,0,0,59.25,74Zm-3.4-2.64a2.74,2.74,0,0,1-.12-.78,1.84,1.84,0,0,1,.07-.47,1.22,1.22,0,0,1,.21-.39.93.93,0,0,1,.33-.26.92.92,0,0,1,.44-.1.74.74,0,0,1,.38.09.65.65,0,0,1,.25.21.84.84,0,0,1,.14.32,1.33,1.33,0,0,1,.05.34,1.2,1.2,0,0,1-.13.54,2.11,2.11,0,0,1-.32.48,3.19,3.19,0,0,1-.46.43l-.54.42A4.9,4.9,0,0,1,55.85,71.38Zm1.48,4.49a1.87,1.87,0,0,1-.89.23A1.69,1.69,0,0,1,55.8,76a1.87,1.87,0,0,1-.53-.32,1.59,1.59,0,0,1-.37-.51,1.83,1.83,0,0,1-.13-.68,1.51,1.51,0,0,1,.1-.53,1.89,1.89,0,0,1,.28-.47,2.62,2.62,0,0,1,.39-.43c.15-.14.31-.27.48-.4A8.12,8.12,0,0,0,57,74.06a14.82,14.82,0,0,0,1.13,1.22A3.05,3.05,0,0,1,57.33,75.87Z"/><path class="cls-4" d="M67.49,73.8c0,.34,0,.66,0,1s0,.66,0,1h0l-.78-1.37-2.93-5.2h-.35v7.06h.32V71.64c0-.34,0-.66,0-1s0-.63,0-1h0l.78,1.37,2.93,5.2h.35V69.21h-.32Z"/><path class="cls-4" d="M74.76,70.07a2.37,2.37,0,0,0-.82-.73,2.27,2.27,0,0,0-1-.26,2.21,2.21,0,0,0-1,.26,2.4,2.4,0,0,0-.83.73,3.55,3.55,0,0,0-.54,1.14,5.8,5.8,0,0,0,0,3A3.66,3.66,0,0,0,71,75.39a2.57,2.57,0,0,0,.83.75,2.21,2.21,0,0,0,1,.26,2.27,2.27,0,0,0,1-.26,2.54,2.54,0,0,0,.82-.75,3.28,3.28,0,0,0,.54-1.16,5.8,5.8,0,0,0,0-3A3.18,3.18,0,0,0,74.76,70.07Zm.21,4a3.21,3.21,0,0,1-.46,1.06,2.19,2.19,0,0,1-.71.68,1.77,1.77,0,0,1-.91.24,1.8,1.8,0,0,1-.92-.24,2.29,2.29,0,0,1-.71-.68,3.43,3.43,0,0,1-.46-1.06,6,6,0,0,1,0-2.76,3.21,3.21,0,0,1,.46-1,2.25,2.25,0,0,1,.71-.67,1.9,1.9,0,0,1,.92-.23,1.86,1.86,0,0,1,.91.23,2.15,2.15,0,0,1,.71.67,3,3,0,0,1,.46,1,6,6,0,0,1,0,2.76Z"/><path class="cls-4" d="M80.82,72.51v-.05a1.62,1.62,0,0,0,1-.57,1.53,1.53,0,0,0,.32-1,1.47,1.47,0,0,0-.61-1.29,2.94,2.94,0,0,0-1.68-.42H78.09v7.06h1.84a3.14,3.14,0,0,0,1.91-.52,1.8,1.8,0,0,0,.7-1.53,1.54,1.54,0,0,0-.46-1.17A2.28,2.28,0,0,0,80.82,72.51Zm-2.39-3h1.22a3.08,3.08,0,0,1,1.56.32,1.11,1.11,0,0,1,.53,1,1.28,1.28,0,0,1-.5,1.11,2.92,2.92,0,0,1-1.66.36H78.43ZM82,75a1.38,1.38,0,0,1-.48.54,2.13,2.13,0,0,1-.75.32,4.4,4.4,0,0,1-1,.1H78.43V72.65H79.8a3.36,3.36,0,0,1,1.77.4,1.31,1.31,0,0,1,.62,1.19A1.65,1.65,0,0,1,82,75Z"/><polygon class="cls-4" points="85.65 69.21 85.32 69.21 85.32 76.27 89.41 76.27 89.41 75.97 85.65 75.97 85.65 69.21"/><polygon class="cls-4" points="92.31 72.66 95.48 72.66 95.48 72.36 92.31 72.36 92.31 69.51 96.08 69.51 96.08 69.21 91.97 69.21 91.97 76.27 96.19 76.27 96.19 75.97 92.31 75.97 92.31 72.66"/></svg>