<?xml version="1.0" encoding="utf-8"?>
<!-- Generator: Adobe Illustrator 24.0.1, SVG Export Plug-In . SVG Version: 6.00 Build 0)  -->
<svg version="1.1" id="Layer_2" xmlns="http://www.w3.org/2000/svg" xmlns:xlink="http://www.w3.org/1999/xlink" x="0px" y="0px"
	 viewBox="0 0 500 500" style="enable-background:new 0 0 500 500;" xml:space="preserve">
<style type="text/css">
	.st0{fill:#FFFFFF;}
</style>
<rect x="67.5" y="67.5" width="365" height="365"/>
<g>
	<path class="st0" d="M103.5,217.2c3,0,5.8,0.2,8.3,0.9c2.6,0.5,4.6,1.4,6.5,2.6c1.9,1.1,3.2,2.8,4.2,4.9c0.9,2.1,1.4,4.6,1.4,7.4
		c0,3.2-0.7,6-2.3,8.1c-1.4,2.1-3.7,4-6.5,5.3c4,1.1,7,3.2,8.8,6c1.8,2.8,3,6.3,3,10.2c0,3.2-0.7,6-1.9,8.3c-1.1,2.3-3,4.4-5.1,5.8
		c-2.1,1.4-4.6,2.6-7.4,3.2s-5.6,1.1-8.3,1.1l-31.1,0.1v-64.1H103.5z M101.6,243.2c2.6,0,4.6-0.7,6.3-1.9c1.6-1.2,2.3-3.2,2.3-5.8
		c0-1.4-0.2-2.8-0.7-3.7c-0.5-0.9-1.1-1.6-2.1-2.3c-0.9-0.5-1.9-0.9-3-1.1c-1.1-0.2-2.3-0.2-3.7-0.2H87.2v15.1
		C87.2,243.2,101.6,243.2,101.6,243.2z M102.3,270.6c1.4,0,2.8-0.2,4-0.5c1.1-0.2,2.3-0.7,3.2-1.4s1.6-1.4,2.3-2.6
		c0.5-1.1,0.9-2.6,0.9-4.2c0-3.2-0.9-5.6-2.8-7.2c-1.9-1.4-4.4-2.1-7.4-2.1H87.2v17.9L102.3,270.6L102.3,270.6z"/>
	<path class="st0" d="M147.1,270.3c1.9,1.9,4.6,2.8,8.3,2.8c2.6,0,4.9-0.7,6.7-1.9c1.9-1.4,3-2.8,3.5-4.2H177
		c-1.9,5.6-4.6,9.5-8.3,12.1c-3.7,2.3-8.1,3.7-13.5,3.7c-3.7,0-7-0.7-10-1.9c-3-1.1-5.3-2.8-7.4-5.1c-2.1-2.1-3.7-4.6-4.6-7.7
		c-1.1-3-1.6-6.3-1.6-10c0-3.5,0.5-6.7,1.6-9.8c1.2-3,2.8-5.6,4.9-7.9c2.1-2.1,4.6-4,7.4-5.1c3-1.1,6-1.9,9.8-1.9
		c4,0,7.4,0.7,10.4,2.3c3,1.6,5.3,3.5,7.2,6.3c1.9,2.6,3.2,5.6,4.2,8.8c0.5,3.2,0.7,6.5,0.5,10.2h-33.7
		C143.9,265,145.3,268.5,147.1,270.3z M161.8,245.9c-1.6-1.6-4.2-2.6-7.2-2.6c-2.1,0-3.7,0.5-5.1,1.1c-1.4,0.7-2.3,1.6-3.2,2.6
		c-0.9,0.9-1.4,2.1-1.6,3.2s-0.5,2.1-0.5,3H165C164.5,249.9,163.4,247.6,161.8,245.9z M141.3,221.6h26v6.3h-26V221.6z"/>
	<path class="st0" d="M195.6,217.2v24.1h0.2c1.6-2.8,3.7-4.6,6.3-5.8c2.6-1.1,4.9-1.9,7.4-1.9c3.5,0,6.3,0.5,8.3,1.4
		c2.1,0.9,4,2.3,5.1,4c1.1,1.6,2.1,3.7,2.6,6c0.5,2.3,0.7,4.9,0.7,7.9v28.5h-12.8v-26.2c0-4-0.7-6.7-1.9-8.6
		c-1.2-1.8-3.2-2.8-6.2-2.8c-3.5,0-6,1.1-7.4,3c-1.6,2.1-2.3,5.6-2.3,10.2v24.4h-12.8v-64.3H195.6z"/>
	<path class="st0" d="M235.6,241.8c1.4-2.1,3-3.5,5.1-4.9c2.1-1.1,4.4-2.1,7-2.6c2.6-0.5,5.1-0.7,7.7-0.7c2.3,0,4.6,0.2,7.2,0.5
		c2.3,0.2,4.6,0.9,6.5,1.9c2.1,0.9,3.5,2.3,4.9,4c1.1,1.6,1.9,4,1.9,6.7v24.4c0,2.1,0.2,4.2,0.5,6c0.2,1.9,0.9,3.5,1.6,4.4h-13
		c-0.5-0.5-0.7-1.4-0.9-2.1c-0.2-0.7-0.2-1.6-0.2-2.3c-2.1,2.1-4.4,3.5-7.2,4.4c-2.8,0.9-5.6,1.1-8.3,1.1c-2.3,0-4.2-0.2-6.3-0.9
		c-1.9-0.5-3.5-1.4-5.1-2.6c-1.4-1.1-2.6-2.6-3.5-4.4c-0.7-1.9-1.1-3.7-1.1-6.3c0-2.6,0.5-4.9,1.4-6.5c0.9-1.6,2.1-3,3.5-4.2
		c1.4-0.9,3.2-1.9,5.1-2.3s3.7-0.9,5.8-1.1c1.9-0.2,3.7-0.5,5.6-0.7s3.5-0.5,4.9-0.7c1.4-0.5,2.6-0.9,3.5-1.6c0.9-0.7,1.1-1.6,1.1-3
		c0-1.4-0.2-2.6-0.7-3.2c-0.5-0.7-1.1-1.4-1.9-1.9c-0.7-0.5-1.6-0.7-2.6-0.9s-2.1-0.2-3.2-0.2c-2.6,0-4.4,0.5-5.8,1.6
		c-1.4,1.1-2.3,3-2.6,5.3h-12.8C233.5,246.2,234.4,243.6,235.6,241.8z M260.9,259.9c-0.7,0.2-1.6,0.5-2.6,0.7s-1.9,0.2-3,0.5
		c-0.9,0.2-2.1,0.2-3,0.5c-0.9,0.2-1.9,0.5-2.8,0.7c-0.9,0.2-1.9,0.7-2.3,1.1c-0.7,0.5-1.1,1.1-1.6,1.9c-0.7,0.9-0.7,1.9-0.7,3
		s0.2,2.1,0.7,2.8c0.5,0.7,0.9,1.4,1.6,1.9c0.7,0.5,1.6,0.7,2.6,0.9c0.9,0.2,1.9,0.2,3,0.2c2.6,0,4.4-0.5,5.8-1.1
		c1.4-0.9,2.3-1.9,3-3c0.7-1.1,1.1-2.3,1.1-3.5c0.2-1.1,0.2-2.1,0.2-2.8v-4.9C262.3,259.2,261.6,259.7,260.9,259.9z"/>
	<path class="st0" d="M295,234.8v6.5h0.2c1.6-2.8,3.7-4.6,6.3-5.8c2.6-1.1,5.3-1.9,7.9-1.9c3.5,0,6.3,0.5,8.3,1.4
		c2.3,0.9,4,2.3,5.1,4c1.1,1.6,2.1,3.7,2.8,6c0.5,2.3,0.7,4.9,0.7,7.9v28.5h-12.8v-26.2c0-4-0.7-6.7-1.9-8.6c-1.1-1.9-3.2-3-6.5-3
		c-3.5,0-6,1.4-7.7,3.5c-1.6,2.1-2.3,5.6-2.3,10.2v24.4h-12.8v-46.9C282.5,234.8,295,234.8,295,234.8z"/>
	<path class="st0" d="M354.9,243.2c-2.1,0-3.7,0.5-5.1,1.4c-1.4,0.9-2.6,2.1-3.5,3.7c-0.9,1.4-1.4,3-1.9,4.9
		c-0.5,1.9-0.5,3.5-0.5,5.3c0,1.6,0.2,3.5,0.5,5.1c0.5,1.9,0.9,3.2,1.9,4.6c0.9,1.4,1.9,2.6,3.2,3.5c1.4,0.9,3,1.4,5.1,1.4
		c3,0,5.3-0.9,7.2-2.6c1.6-1.6,2.8-4,3-7h12.3c-0.9,6.3-3.2,10.9-7.2,14.2c-4,3.2-9.1,4.9-15.3,4.9c-3.5,0-6.7-0.7-9.5-1.9
		c-3-1.1-5.3-2.8-7.4-4.9c-2.1-2.1-3.7-4.6-4.9-7.4c-1.1-3-1.6-6-1.6-9.5c0-3.7,0.5-7,1.6-10c1.1-3,2.6-5.8,4.6-8.1
		c2.1-2.3,4.6-4,7.4-5.3c3-1.1,6.3-1.9,10-1.9c2.8,0,5.3,0.5,7.9,1.1c2.6,0.7,4.9,1.9,6.7,3.2c2.1,1.4,3.7,3.2,4.9,5.6
		c1.1,2.1,1.9,4.9,2.1,7.9H364C363.5,245.9,360.5,243.2,354.9,243.2z"/>
	<path class="st0" d="M396.4,270.3c1.9,1.9,4.9,2.8,8.3,2.8c2.6,0,4.9-0.7,6.7-1.9c1.9-1.4,3-2.8,3.5-4.2h11.1
		c-1.9,5.6-4.6,9.5-8.3,12.1c-3.7,2.3-8.1,3.7-13.5,3.7c-3.7,0-7-0.7-10-1.9c-3-1.1-5.3-2.8-7.4-5.1c-2.1-2.1-3.7-4.6-4.6-7.7
		c-1.1-3-1.6-6.3-1.6-10c0-3.5,0.5-6.7,1.6-9.8c1.1-3,2.8-5.6,4.9-7.9c2.1-2.1,4.6-4,7.4-5.1c3-1.1,6.3-1.9,9.8-1.9
		c4,0,7.4,0.7,10.2,2.3c3,1.6,5.3,3.5,7.2,6.3c1.9,2.6,3.2,5.6,4.2,8.8c0.9,3.2,1.1,6.7,0.9,10.4h-33.7
		C393.2,265,394.6,268.5,396.4,270.3L396.4,270.3z M411.3,245.9c-1.6-1.6-4.2-2.6-7.2-2.6c-2.1,0-3.7,0.5-5.1,1.1
		c-1.4,0.7-2.6,1.6-3.2,2.6c-0.7,0.9-1.4,2.1-1.6,3.2c-0.2,1.1-0.5,2.1-0.5,3h20.9C413.9,249.9,412.7,247.6,411.3,245.9L411.3,245.9
		z"/>
</g>
</svg>
