<?xml version="1.0" encoding="utf-8"?>
<!-- Generator: Adobe Illustrator 24.0.1, SVG Export Plug-In . SVG Version: 6.00 Build 0)  -->
<svg version="1.1" id="Layer_2" xmlns="http://www.w3.org/2000/svg" xmlns:xlink="http://www.w3.org/1999/xlink" x="0px" y="0px"
	 viewBox="0 0 108 81" style="enable-background:new 0 0 108 81;" xml:space="preserve">
<style type="text/css">
	.st0{fill:#B5302B;}
	.st1{fill:#5E846D;}
	.st2{fill:#FFFFFF;}
	.st3{fill:#5E846D;stroke:#FFFFFF;stroke-width:0.5;stroke-linejoin:bevel;stroke-miterlimit:10;}
</style>
<rect class="st0" width="108" height="81"/>
<g>
	<g>
		<g>
			<path class="st1" d="M29.8,43V26.4c0-12.6,10.1-22.8,22.5-22.8s22.5,10.2,22.5,22.8V43H29.8z M55.8,22.2c3.7,0,4,3.7,4,5.4v3.8
				l0.3,0.3h5l0.3-0.3v-2.7c0-6.5-3.4-13.4-13-13.4c-7.9,0-13.1,5.2-13.1,13.3v2.8l0.3,0.3h5l0.3-0.3V28c0-2.9,1.2-4.4,3.8-4.4
				c1.5,0,2.4,0.4,2.9,1.6l0.2,0.1l0.3-0.2C52.3,23.2,53.5,22.2,55.8,22.2z M55.4,25.6c-0.6,0-1,0.1-1.4,0.4
				c-0.7,0.7-0.7,1.8-0.7,2.8v0.8l0.3,0.3H57l0.3-0.3V29c0-0.9,0-2.2-0.7-2.9C56.2,25.9,55.9,25.6,55.4,25.6z M49.2,26.8
				c-1.8,0-1.8,1.7-1.8,2.6v0.3l0.3,0.3h2.9l0.3-0.3v-0.4C51,28.6,51,26.8,49.2,26.8z"/>
			<path class="st2" d="M52.3,3.8c12.3,0,22.2,10.1,22.2,22.6v16.2H30.1V26.4C30.1,13.9,40,3.8,52.3,3.8 M39.6,31.9h4.9l0.6-0.6V28
				c0-2.8,1.1-4,3.5-4c1.3,0,2.2,0.4,2.7,1.5l0.6,0.3l0.6-0.4c0.2-1.8,1.3-2.7,3.4-2.7c3.3,0,3.8,3.1,3.8,5.1v3.8l0.6,0.6h5l0.6-0.6
				v-2.7c0-6.6-3.5-13.6-13.3-13.6c-8.1,0-13.3,5.3-13.3,13.5v2.8L39.6,31.9 M53.7,30.3H57l0.6-0.6v-0.6V29c0-1,0-2.4-0.8-3.1
				c-0.3-0.3-0.9-0.6-1.5-0.6c-0.7,0-1.1,0.2-1.6,0.6c-0.8,0.8-0.7,2-0.7,3v0.3v0.4L53.7,30.3 M47.6,30.3h3l0.6-0.6v-0.4
				c0-1.8-0.7-2.7-2-2.7c-2,0-2,2-2,2.9v0.3L47.6,30.3 M52.3,3.3c-12.8,0-22.7,10.5-22.7,23.2v16.8h45.6V26.4
				C75,13.8,65.1,3.3,52.3,3.3L52.3,3.3z M39.6,31.4v-2.8c0-7.6,4.6-12.9,12.7-12.9c8.9,0,12.7,6.1,12.7,13.1v2.7h-5v-3.8
				c0-2.8-1.1-5.6-4.4-5.6c-2.1,0-3.7,0.9-3.9,3.1l0,0c-0.7-1.2-1.8-1.7-3.1-1.7c-2.9,0-4.1,1.9-4.1,4.6v3.4H39.6L39.6,31.4z
				 M53.7,29.7v-0.4c0-1.4-0.2-3.4,1.7-3.4c1.7,0,1.7,2,1.7,3.3v0.6H53.7L53.7,29.7z M47.6,29.7v-0.3c0-1.1,0.1-2.4,1.5-2.4
				s1.5,1.1,1.5,2.1v0.5h-2.9V29.7z"/>
		</g>
		<g>
			<path class="st3" d="M18.6,46.6h4.3c3.3,0,5.9,2.6,5.9,5.9s-2.7,5.8-5.9,5.8h-4.3V46.6z M21.6,55.7h0.7c1.8,0,3.4-1,3.4-3.3
				c0-2-1.4-3.3-3.3-3.3h-0.8V55.7z"/>
			<path class="st3" d="M31.9,51.9v1.3h2.4V55h-2.4v1.4h2.5v1.8h-4.6v-8.1h4.6v1.8C34.4,51.9,31.9,51.9,31.9,51.9z"/>
			<path class="st3" d="M40.2,52.2c-0.3-0.3-0.9-0.6-1.4-0.6c-0.3,0-0.9,0.2-0.9,0.7c0,0.5,0.6,0.7,0.9,0.8l0.6,0.1
				c1.1,0.3,2,0.9,2,2.2c0,0.8-0.2,1.7-0.8,2.1c-0.7,0.7-1.6,0.9-2.4,0.9c-1,0-2-0.3-2.8-0.9l0.9-1.7c0.6,0.5,1.1,0.8,1.9,0.8
				c0.5,0,1-0.2,1-0.8S38.5,55.1,38,55c-1.3-0.3-2.2-0.7-2.2-2.2c0-1.7,1.1-2.7,2.8-2.7c0.8,0,1.8,0.2,2.6,0.7L40.2,52.2z"/>
			<path class="st3" d="M44.4,58.3h-2.1v-8.1h2.1V58.3z"/>
			<path class="st3" d="M54,53.7c0,1.2-0.1,2.2-0.8,3.3c-0.8,1.1-2,1.6-3.4,1.6c-2.6,0-4.4-1.7-4.4-4.3c0-2.6,1.8-4.4,4.4-4.4
				c1.7,0,2.9,0.8,3.7,2.2l-2,0.8c-0.3-0.8-0.9-1.4-1.8-1.4c-1.4,0-2.1,1.4-2.1,2.6s0.8,2.6,2.1,2.6c0.9,0,1.6-0.5,1.7-1.5h-1.7
				v-1.7H54V53.7z"/>
			<path class="st3" d="M54.9,50.1H57l3.8,5l0,0v-5H63v8.1h-2.1l-3.8-5l0,0v5h-2.1V50.1z"/>
			<path class="st3" d="M66.6,51.9v1.3H69V55h-2.4v1.4h2.5v1.8h-4.6v-8.1h4.6v1.8C69.1,51.9,66.6,51.9,66.6,51.9z"/>
			<path class="st3" d="M77.2,58.3h-2.6l-2.1-3.1l0,0v3.1h-2.1v-8.1h3.2c1.6,0,2.8,0.8,2.8,2.5c0,1.1-0.7,2.1-1.8,2.2L77.2,58.3z
				 M72.5,53.8h0.2c0.7,0,1.5-0.1,1.5-1c0-0.9-0.8-1-1.5-1h-0.2V53.8z"/>
			<path class="st3" d="M18.6,73.7V62h4.3c2,0,3.5,0.8,3.5,3c0,1-0.3,1.9-1.2,2.4l0,0c1.7,0.2,2.4,1.3,2.4,2.9c0,2.5-2,3.3-4.2,3.3
				h-4.7V73.7z M21.6,66.6h0.3c0.8,0,1.7-0.1,1.7-1.1c0-1-0.9-1.1-1.8-1.1h-0.2V66.6z M21.6,71.3h0.3c0.9,0,2.4,0,2.4-1.2
				c0-1.3-1.5-1.2-2.5-1.2h-0.2V71.3z"/>
			<path class="st3" d="M37.2,69.4c0,2.6-1.9,4.5-4.5,4.5c-2.6,0-4.5-1.8-4.5-4.5c0-2.5,2.1-4.2,4.5-4.2
				C35.1,65.2,37.2,66.9,37.2,69.4z M30.5,69.4c0,1.4,1,2.5,2.2,2.5c1.2,0,2.2-1,2.2-2.5c0-1.1-1-2.1-2.2-2.1
				C31.5,67.3,30.5,68.3,30.5,69.4z"/>
			<path class="st3" d="M46.8,69.4c0,2.6-1.9,4.5-4.5,4.5c-2.6,0-4.5-1.8-4.5-4.5c0-2.5,2.1-4.2,4.5-4.2
				C44.7,65.2,46.8,66.9,46.8,69.4z M40,69.4c0,1.4,1,2.5,2.2,2.5c1.2,0,2.2-1,2.2-2.5c0-1.1-1-2.1-2.2-2.1
				C41.1,67.3,40,68.3,40,69.4z"/>
			<path class="st3" d="M52.4,65.5h2.7l-3.3,3.8l3.5,4.3h-2.7l-2.7-3.5l0,0v3.5h-2.1v-8.1h2.1v3.4l0,0L52.4,65.5z"/>
			<path class="st3" d="M60.4,67.6c-0.3-0.3-0.9-0.6-1.4-0.6c-0.3,0-0.9,0.2-0.9,0.7s0.6,0.7,0.9,0.8l0.6,0.1c1.1,0.3,2,0.9,2,2.2
				c0,0.8-0.2,1.7-0.8,2.1c-0.7,0.6-1.5,0.8-2.4,0.8c-1,0-2-0.3-2.8-0.9l0.9-1.7c0.6,0.5,1.1,0.8,1.9,0.8c0.5,0,1-0.2,1-0.8
				s-0.8-0.8-1.2-0.9C56.9,70,56,69.6,56,68.1c0-1.7,1.1-2.7,2.8-2.7c0.8,0,1.8,0.2,2.6,0.7L60.4,67.6z"/>
			<path class="st3" d="M65.8,73.7h-2.1v-6.3h-1.8v-1.8h5.6v1.8h-1.8v6.3H65.8z"/>
			<path class="st3" d="M77,69.4c0,2.6-1.9,4.5-4.5,4.5c-2.6,0-4.5-1.8-4.5-4.5c0-2.5,2.1-4.2,4.5-4.2C74.7,65.2,77,66.9,77,69.4z
				 M70.1,69.4c0,1.4,1,2.5,2.2,2.5c1.2,0,2.2-1,2.2-2.5c0-1.1-1-2.1-2.2-2.1C71.1,67.3,70.1,68.3,70.1,69.4z"/>
			<path class="st3" d="M84.6,73.7H82l-2-3.2l0,0v3.2h-2.1v-8.1H81c1.6,0,2.8,0.8,2.8,2.5c0,1.1-0.7,2.1-1.8,2.2L84.6,73.7z
				 M80,69.2h0.2c0.7,0,1.5-0.1,1.5-1c0-0.9-0.8-1-1.5-1H80V69.2z"/>
			<path class="st3" d="M87.3,67.3v1.3h2.4v1.8h-2.4v1.4h2.5v1.8h-4.6v-8.1h4.6v1.8H87.3z"/>
		</g>
	</g>
</g>
</svg>
